# xmcd CD database file
#
# Track frame offsets:
#	150
#	34425
#	58200
#	104025
#	125100
#	147375
#	166050
#	191025
#	220950
#	237225
#	264900
#	281925
#
# Disc length: 3997 seconds
#
# Revision: 0
# Processed by: cddbd v1.5.2PL0 Copyright (c) Steve Scherf et al.
# Submitted via: CDex 1.70beta2
#
DISCID=c70f9b0c
DTITLE=Stan Getz and the Oscar Peterson Trio - Stan Getz and the Oscar Peterson Trio
DYEAR=1957
DGENRE=Jazz
TTITLE0=I want to be happy
TTITLE1=Pennies from heaven
TTITLE2=Ballad medley - Bewitched - I don't know why i just do - How long has been going on - I can't get started - Polka dots and moonbeans
TTITLE3=I am glad there is you
TTITLE4=Tour's end
TTITLE5=I was doing all right
TTITLE6=Bronx blues
TTITLE7=Three little words 
TTITLE8=Detour ahead
TTITLE9=Sunday
TTITLE10=Blues for herky
TTITLE11=It never entered my mind
EXTD=YEAR: 1957
EXTT0=
EXTT1=
EXTT2=
EXTT3=
EXTT4=
EXTT5=
EXTT6=
EXTT7=
EXTT8=
EXTT9=
EXTT10=
EXTT11=
PLAYORDER=
